<svg width="22" height="16" viewBox="0 0 22 16" fill="none" xmlns="http://www.w3.org/2000/svg">
<path id="Vector" d="M22 9.4557C22 9.64853 21.9227 9.83347 21.7852 9.96982C21.6477 10.1062 21.4612 10.1828 21.2667 10.1828H19.8V11.6369C19.8 11.8298 19.7227 12.0147 19.5852 12.1511C19.4477 12.2874 19.2611 12.364 19.0666 12.364C18.8721 12.364 18.6856 12.2874 18.5481 12.1511C18.4106 12.0147 18.3333 11.8298 18.3333 11.6369V10.1828H16.8666C16.6721 10.1828 16.4856 10.1062 16.3481 9.96982C16.2105 9.83347 16.1333 9.64853 16.1333 9.4557C16.1333 9.26286 16.2105 9.07793 16.3481 8.94157C16.4856 8.80522 16.6721 8.72862 16.8666 8.72862H18.3333V7.27445C18.3333 7.08162 18.4106 6.89668 18.5481 6.76033C18.6856 6.62397 18.8721 6.54737 19.0666 6.54737C19.2611 6.54737 19.4477 6.62397 19.5852 6.76033C19.7227 6.89668 19.8 7.08162 19.8 7.27445V8.72862H21.2667C21.4612 8.72862 21.6477 8.80522 21.7852 8.94157C21.9227 9.07793 22 9.26286 22 9.4557ZM16.6952 14.8043C16.8204 14.9521 16.8813 15.1431 16.8644 15.3353C16.8476 15.5276 16.7544 15.7053 16.6054 15.8295C16.4563 15.9536 16.2637 16.014 16.0697 15.9973C15.8758 15.9806 15.6966 15.8882 15.5713 15.7404C13.727 13.5628 11.1915 12.364 8.43319 12.364C5.67491 12.364 3.13938 13.5628 1.29503 15.7404C1.16982 15.888 0.990589 15.9803 0.79676 15.9969C0.602931 16.0136 0.410383 15.9532 0.261473 15.829C0.112563 15.7049 0.0194906 15.5272 0.00272938 15.335C-0.0140319 15.1428 0.0468914 14.9519 0.172097 14.8043C1.54161 13.1884 3.2448 12.0405 5.13773 11.4261C3.98813 10.7162 3.10301 9.65439 2.61626 8.40132C2.12952 7.14825 2.06765 5.77209 2.44 4.48105C2.81236 3.19001 3.59868 2.05434 4.68001 1.24583C5.76134 0.437333 7.07884 0 8.43319 0C9.78753 0 11.105 0.437333 12.1864 1.24583C13.2677 2.05434 14.054 3.19001 14.4264 4.48105C14.7987 5.77209 14.7369 7.14825 14.2501 8.40132C13.7634 9.65439 12.8782 10.7162 11.7286 11.4261C13.6216 12.0405 15.3248 13.1884 16.6952 14.8043ZM8.43319 10.9099C9.37595 10.9099 10.2976 10.6327 11.0814 10.1134C11.8653 9.59408 12.4763 8.85597 12.8371 7.9924C13.1978 7.12883 13.2922 6.17859 13.1083 5.26183C12.9244 4.34507 12.4704 3.50297 11.8038 2.84202C11.1371 2.18107 10.2878 1.73096 9.36313 1.54861C8.43847 1.36625 7.48005 1.45984 6.60904 1.81755C5.73804 2.17525 4.99358 2.781 4.46981 3.55819C3.94603 4.33538 3.66647 5.24911 3.66647 6.18383C3.66792 7.43681 4.1706 8.63805 5.06422 9.52404C5.95783 10.41 7.16942 10.9084 8.43319 10.9099Z" fill="#231F20"/>
</svg>
