<?xml version="1.0" standalone="no"?>
<!DOCTYPE svg PUBLIC "-//W3C//DTD SVG 20010904//EN"
 "http://www.w3.org/TR/2001/REC-SVG-20010904/DTD/svg10.dtd">
<svg version="1.0" xmlns="http://www.w3.org/2000/svg"
 width="256.000000pt" height="256.000000pt" viewBox="0 0 256.000000 256.000000"
 preserveAspectRatio="xMidYMid meet">

<g transform="translate(0.000000,256.000000) scale(0.100000,-0.100000)"
fill="#000000" stroke="none">
<path d="M273 2334 c-40 -20 -67 -74 -58 -117 10 -47 1955 -1992 2002 -2002
72 -15 143 57 128 128 -6 24 -62 88 -231 258 l-224 225 49 33 c121 78 394 347
406 399 11 51 -18 92 -158 229 -192 187 -306 268 -469 332 -155 62 -234 76
-438 76 -171 0 -193 -2 -294 -28 l-109 -29 -246 246 c-222 221 -276 267 -314
266 -7 0 -26 -8 -44 -16z m1247 -673 c106 -27 245 -94 330 -159 36 -28 103
-89 150 -136 l85 -87 -110 -107 c-60 -59 -139 -127 -175 -150 l-65 -42 -82 82
-83 83 16 45 c35 99 0 235 -81 315 -80 81 -216 116 -315 81 l-44 -15 -47 42
c-26 23 -47 45 -48 49 -2 14 131 26 254 23 89 -2 157 -10 215 -24z"/>
<path d="M382 1493 c-176 -173 -187 -192 -157 -257 19 -40 249 -267 341 -337
131 -100 275 -169 441 -211 75 -19 115 -23 268 -23 99 0 193 4 209 8 l29 8
-92 93 -93 93 -106 6 c-196 12 -373 77 -521 192 -31 24 -94 82 -141 130 l-85
86 111 109 111 109 -77 76 -77 77 -161 -159z"/>
</g>
</svg>
