<svg width="22" height="15" viewBox="0 0 22 15" fill="none" xmlns="http://www.w3.org/2000/svg">
  <path d="M21.9368 7.19625C21.9047 7.12219 21.1283 5.36062 19.4022 3.59531C17.1023 1.24312 14.1973 0 11 0C7.80266 0 4.89775 1.24312 2.59783 3.59531C0.871742 5.36062 0.091658 7.125 0.0632413 7.19625C0.021545 7.29217 0 7.39597 0 7.50094C0 7.60591 0.021545 7.70971 0.0632413 7.80562C0.0953246 7.87969 0.871742 9.64031 2.59783 11.4056C4.89775 13.7569 7.80266 15 11 15C14.1973 15 17.1023 13.7569 19.4022 11.4056C21.1283 9.64031 21.9047 7.87969 21.9368 7.80562C21.9785 7.70971 22 7.60591 22 7.50094C22 7.39597 21.9785 7.29217 21.9368 7.19625ZM11 13.5C8.1785 13.5 5.71358 12.4509 3.67308 10.3828C2.83583 9.53128 2.12353 8.56027 1.55833 7.5C2.12338 6.43963 2.8357 5.4686 3.67308 4.61719C5.71358 2.54906 8.1785 1.5 11 1.5C13.8215 1.5 16.2864 2.54906 18.3269 4.61719C19.1658 5.4684 19.8797 6.43942 20.4463 7.5C19.7853 8.76188 16.9061 13.5 11 13.5ZM11 3C10.1298 3 9.27907 3.26392 8.55549 3.75839C7.83191 4.25285 7.26795 4.95566 6.93493 5.77792C6.6019 6.60019 6.51477 7.50499 6.68454 8.37791C6.85432 9.25082 7.27338 10.0526 7.88873 10.682C8.50408 11.3113 9.28808 11.7399 10.1416 11.9135C10.9951 12.0872 11.8798 11.9981 12.6838 11.6575C13.4878 11.3169 14.175 10.7401 14.6585 10.0001C15.1419 9.26005 15.4 8.39002 15.4 7.5C15.3988 6.30691 14.9348 5.16303 14.1099 4.31939C13.285 3.47575 12.1666 3.00124 11 3ZM11 10.5C10.4198 10.5 9.85271 10.3241 9.37033 9.99441C8.88794 9.66476 8.51197 9.19623 8.28995 8.64805C8.06793 8.09987 8.00984 7.49667 8.12303 6.91473C8.23621 6.33279 8.51558 5.79824 8.92582 5.37868C9.33605 4.95912 9.85872 4.6734 10.4277 4.55764C10.9967 4.44189 11.5865 4.5013 12.1225 4.72836C12.6585 4.95542 13.1167 5.33994 13.439 5.83329C13.7613 6.32664 13.9333 6.90666 13.9333 7.5C13.9333 8.29565 13.6243 9.05871 13.0742 9.62132C12.5241 10.1839 11.778 10.5 11 10.5Z" fill="#231F20"/>
  <path d="M1 1L21 14" stroke="#231F20" stroke-width="1.5"/>
</svg>